<svg width="42" height="42" viewBox="0 0 42 42" fill="none" xmlns="http://www.w3.org/2000/svg">
<path d="M34.5688 8.30664L33.9959 8.36115C33.9959 8.36115 33.1759 8.43909 32.1695 8.70399C31.1631 8.96868 29.9496 9.40771 29.1089 10.2328C28.3278 10.9998 27.8905 11.7553 27.7786 12.481C27.6929 13.0371 27.82 13.5658 28.1019 13.9972L27.2807 14.8033C27.4475 13.7893 27.2547 12.7173 27.0174 11.8469C26.7477 10.859 26.4057 10.1194 26.4057 10.1194L26.1683 9.60887L25.7008 9.93429C25.7008 9.93429 25.0268 10.4071 24.29 11.1305C23.5532 11.8537 22.727 12.8271 22.4193 13.9545C22.1334 15.002 22.1402 15.8728 22.4128 16.5562C22.6854 17.2394 23.2473 17.7051 23.9095 17.8793C23.9763 17.8969 24.0449 17.9025 24.1129 17.9129L22.9793 19.0255C22.9627 19.3765 22.9158 19.7303 22.8203 20.0802C22.792 20.1836 22.7572 20.2767 22.7251 20.3749C22.4193 21.3375 21.9672 22.0876 21.3422 22.5775C20.933 22.8983 20.4587 23.0805 19.9758 23.139C19.6322 23.1808 19.2842 23.1622 18.9512 23.0745C18.9267 23.0681 18.9035 23.0581 18.8792 23.0509L17.5655 24.3404C17.7317 23.327 17.5379 22.2547 17.3003 21.385C17.0309 20.3971 16.686 19.6611 16.686 19.6611L16.4487 19.1471L15.9812 19.4762C15.9812 19.4762 15.3118 19.9455 14.575 20.6687C13.8383 21.3919 13.0073 22.369 12.6997 23.4962C12.4138 24.5437 12.4197 25.411 12.6923 26.0942C12.9649 26.7774 13.5287 27.2467 14.1907 27.421C14.2575 27.4386 14.3261 27.4442 14.3939 27.4546L8.22639 33.5075C8.13496 33.5939 8.0828 33.7125 8.08132 33.837C8.08006 33.9616 8.12947 34.0814 8.219 34.1697C8.30832 34.2578 8.43016 34.3072 8.55708 34.3065C8.68378 34.3059 8.80498 34.2551 8.89346 34.166L14.6658 28.501C14.6584 28.4769 14.6485 28.4537 14.6417 28.4293C14.5513 28.0982 14.5334 27.7527 14.5788 27.4117C14.6409 26.941 14.8269 26.4794 15.1506 26.0814C15.6471 25.4712 16.4056 25.0295 17.3799 24.7294C17.4833 24.6966 17.5817 24.6601 17.6911 24.6315C18.0473 24.5379 18.4095 24.4893 18.7683 24.4738L19.9447 23.3192C19.9552 23.3854 19.9612 23.4521 19.9789 23.517C20.1563 24.167 20.6343 24.7194 21.3306 24.987C22.0266 25.2546 22.913 25.2612 23.9801 24.9808C25.1284 24.6786 26.1202 23.8667 26.857 23.1435C27.5937 22.4203 28.0756 21.7586 28.0756 21.7586L28.4071 21.2997L27.887 21.0667C27.887 21.0667 27.1336 20.7312 26.1272 20.4665C25.4979 20.3009 24.7645 20.1554 24.0225 20.1427C23.7157 20.1373 23.4097 20.167 23.1068 20.2161L24.3819 18.9637C24.3743 18.9388 24.3637 18.9152 24.3569 18.8903C24.2666 18.5593 24.2495 18.2138 24.2951 17.8728C24.3571 17.4025 24.5432 16.9413 24.8669 16.5433C25.3614 15.9356 26.1174 15.4949 27.085 15.1947C27.1931 15.1603 27.2965 15.1224 27.411 15.0923C27.7634 14.9997 28.1201 14.963 28.4744 14.9473L28.7728 14.6544C29.212 14.9311 29.7509 15.0569 30.3174 14.9727C31.0565 14.8629 31.8256 14.4338 32.6067 13.6669C33.4474 12.8417 33.8946 11.6487 34.1642 10.6608C34.4339 9.67291 34.5135 8.86804 34.5135 8.86804L34.5688 8.30664ZM21.3338 14.3553L20.8654 14.6809C20.8654 14.6809 20.1913 15.1537 19.4546 15.8771C18.7178 16.6003 17.8916 17.5745 17.5839 18.7019C17.2978 19.7495 17.3039 20.6194 17.5765 21.3026C17.8491 21.986 18.4119 22.4516 19.0739 22.6257C19.7361 22.7998 20.4631 22.673 21.0472 22.2149C21.6315 21.757 22.0779 21.0073 22.3638 19.9597C22.6715 18.8323 22.4514 17.5814 22.1818 16.5935C21.9121 15.6054 21.5711 14.8669 21.5711 14.8669L21.3338 14.3553ZM28.8586 15.3955C28.4135 15.3878 27.9646 15.4282 27.5338 15.5414C26.4668 15.822 25.7026 16.2602 25.2361 16.8336C24.7696 17.4069 24.6364 18.1197 24.814 18.7697C24.9914 19.4198 25.4694 19.973 26.1657 20.2406C26.8617 20.5082 27.7481 20.514 28.8151 20.2333C29.9634 19.9313 30.9553 19.1192 31.6921 18.396C32.4288 17.6728 32.9107 17.0112 32.9107 17.0112L33.2422 16.5527L32.7221 16.3197C32.7221 16.3197 31.9687 15.985 30.9623 15.7203C30.3332 15.5548 29.6006 15.4083 28.8586 15.3955ZM19.1395 24.9336C19.1241 24.9333 19.1087 24.9354 19.0933 24.9352C18.918 24.9336 18.7432 24.9421 18.5686 24.957C18.482 24.9644 18.3958 24.9721 18.3099 24.9841C18.2793 24.9883 18.2488 24.9928 18.2184 24.9976C18.0822 25.0196 17.9471 25.0451 17.8138 25.0801C17.147 25.2555 16.5997 25.492 16.1693 25.7846L16.1684 25.7854C16.0827 25.8437 16.0018 25.904 15.9254 25.9668C15.9248 25.9672 15.9241 25.9681 15.9235 25.9685C15.9174 25.9737 15.9121 25.9788 15.906 25.984C15.7596 26.1057 15.63 26.2346 15.5179 26.372C15.3432 26.5868 15.2155 26.8225 15.1335 27.0658C15.0524 27.3071 15.0163 27.5572 15.0235 27.8058V27.812V27.8128C15.0237 27.8203 15.025 27.8271 15.0254 27.8346C15.0322 27.9942 15.0552 28.1527 15.0974 28.308L15.0983 28.3088C15.1204 28.3897 15.1475 28.4688 15.1787 28.5464V28.5472C15.21 28.6247 15.2457 28.7004 15.286 28.774V28.7748C15.3261 28.8482 15.3713 28.9193 15.4199 28.9879V28.9887C15.6633 29.3328 16.0112 29.6113 16.4463 29.7786C17.1423 30.0462 18.0296 30.0529 19.0968 29.7724C19.5268 29.6593 19.9347 29.4735 20.3163 29.2482C20.317 29.2478 20.3176 29.2476 20.3182 29.2474C20.4449 29.1726 20.5691 29.0934 20.6897 29.0107C20.6903 29.0103 20.6909 29.0103 20.6916 29.0099C20.9332 28.8444 21.1618 28.6662 21.3762 28.484C21.5909 28.3014 21.7915 28.1152 21.9757 27.9345C21.9765 27.9337 21.9767 27.9327 21.9776 27.9316C22.1393 27.7728 22.2829 27.6207 22.4174 27.4746C22.4362 27.454 22.4603 27.431 22.4785 27.4111C22.9238 26.9209 23.1926 26.5505 23.1926 26.5505L23.3459 26.3374L23.5252 26.0935L23.5233 26.0926L23.5241 26.091L23.004 25.858L23.0013 25.8572C23.0013 25.8572 22.2525 25.5224 21.2459 25.2577C21.0182 25.1978 20.7731 25.1431 20.5224 25.0935C20.4665 25.0826 20.412 25.072 20.3552 25.0618C20.2762 25.0475 20.1972 25.0343 20.1168 25.0218C20.0365 25.0096 19.9552 25.0001 19.8737 24.9901C19.792 24.9802 19.7113 24.9694 19.629 24.9619C19.5052 24.9507 19.3806 24.9445 19.2556 24.9402C19.2168 24.9387 19.1784 24.9335 19.1393 24.9329L19.1395 24.9336Z" fill="#A49BDE"/>
<circle cx="21" cy="21" r="20.5" stroke="#A49BDE"/>
<path d="M9 4.5L32.5 37" stroke="#FF0000" stroke-width="2"/>
</svg>
