<svg width="42" height="42" viewBox="0 0 42 42" fill="none" xmlns="http://www.w3.org/2000/svg">
<path d="M34.9072 19.9903C34.7203 19.0152 34.136 18.1573 33.2894 17.6152C33.9638 16.7058 34.4305 15.664 34.6573 14.5613C34.739 14.1924 34.5132 13.8248 34.1424 13.724L33.5834 13.5652C33.3795 13.506 33.1593 13.5374 32.9811 13.6512C32.8028 13.7651 32.6841 13.95 32.6568 14.1572C32.5341 15.0694 32.2842 15.9611 31.9138 16.8066C31.0416 16.3732 30.0406 16.2579 29.0898 16.4817C27.619 16.8644 26.3466 18.1711 25.2065 20.4739C24.0666 22.7768 20.6907 27.9459 17.7337 30.0108C15.9464 31.2598 13.5857 30.9566 11.9161 30.4872H11.9164C11.5618 30.3838 11.1811 30.5331 10.9971 30.8481C10.9235 30.9735 10.8829 31.115 10.8794 31.2597C10.8816 31.4749 10.9718 31.6803 11.1294 31.8299C12.9691 33.5292 15.4227 34.4385 17.9471 34.3569C18.5051 34.3583 19.0628 34.3247 19.6164 34.2558C23.9703 33.7144 29.2879 29.9098 31.9205 26.5388C33.5679 24.4308 34.7225 22.6404 34.9139 21.0379V21.0376C34.9666 20.6903 34.9641 20.3372 34.9065 19.9907L34.9072 19.9903ZM33.3849 14.2582L33.9365 14.417C33.7226 15.4213 33.2966 16.3705 32.6861 17.2035C32.642 17.1817 32.6051 17.1602 32.5684 17.1385L32.5686 17.1387C32.9833 16.2231 33.2584 15.2524 33.3849 14.2582ZM29.2736 17.1748C30.3969 16.9606 31.56 17.2316 32.4655 17.9183V17.9256C32.4832 17.9466 32.5029 17.9659 32.5243 17.9833C32.5659 18.0201 32.6167 18.045 32.6716 18.0556C33.4477 18.4979 33.9959 19.2434 34.1791 20.1059C34.2064 20.2681 34.2187 20.4324 34.216 20.5968C34.0769 20.6226 33.9393 20.6565 33.8041 20.6978C33.6588 20.7529 33.5039 20.7798 33.348 20.7771C33.2598 20.7411 33.1495 20.5245 33.0685 20.3657H33.0688C32.9579 20.0865 32.7629 19.8472 32.5098 19.68C32.2165 19.5509 31.8882 19.5204 31.5758 19.5932C31.4226 19.6227 31.2653 19.6227 31.1123 19.5932C31.0003 19.459 30.922 19.3007 30.8843 19.1313C30.8254 18.8439 30.6733 18.5828 30.4504 18.3877C30.1552 18.2173 29.8138 18.1392 29.4723 18.1639C29.3383 18.1711 29.2041 18.1566 29.0751 18.1206C28.9325 18.0309 28.8596 17.8651 28.8911 17.7017C28.9027 17.5756 28.8902 17.4482 28.8545 17.3263C28.9891 17.2633 29.1295 17.2125 29.2736 17.1748ZM31.3403 26.0978C30.5846 27.0533 29.7402 27.938 28.8177 28.74C28.7527 28.8019 28.6653 28.8357 28.5749 28.834C28.4225 28.835 28.2851 28.7436 28.2297 28.6044C28.1743 28.4649 28.212 28.3066 28.325 28.2058C29.2119 27.4313 30.0243 26.5783 30.752 25.6573C30.8759 25.498 31.1078 25.4671 31.2704 25.5889C31.4329 25.7105 31.4642 25.9382 31.3403 26.0978ZM31.8331 25.1882C31.6299 25.1882 31.4654 25.0265 31.4654 24.8273C31.4654 24.6279 31.6299 24.4662 31.8331 24.4662C32.0362 24.4662 32.2007 24.6279 32.2007 24.8273C32.2007 25.0265 32.0362 25.1882 31.8331 25.1882ZM35.4406 32.3848C35.2968 32.5257 35.0641 32.5257 34.9206 32.3848L34.3323 31.8073C34.1929 31.6657 34.1949 31.4404 34.3367 31.3012C34.4785 31.162 34.7078 31.16 34.8521 31.2968L35.4404 31.8743H35.4406C35.5842 32.0154 35.5842 32.2439 35.4406 32.3848ZM33.6115 31.3077C33.755 31.4486 33.755 31.6771 33.6115 31.8182L33.0232 32.3957H33.0229C32.8794 32.5366 32.6467 32.5366 32.5031 32.3957C32.3596 32.2548 32.3596 32.0261 32.5031 31.8852L33.0914 31.3077C33.235 31.1668 33.4679 31.1668 33.6115 31.3077ZM32.4923 30.0227H32.492C32.4211 29.9553 32.3807 29.863 32.3797 29.7663C32.379 29.6693 32.4177 29.5763 32.4873 29.5079C32.5573 29.4392 32.6521 29.4013 32.7506 29.402C32.8493 29.403 32.9434 29.4426 33.0121 29.5122L33.6004 30.0897C33.7058 30.1931 33.7373 30.3486 33.6804 30.4837C33.6233 30.6186 33.4888 30.7066 33.3401 30.7063C33.2426 30.7061 33.1493 30.6679 33.0803 30.6002L32.4923 30.0227ZM34.3212 30.5893C34.1776 30.4484 34.1776 30.22 34.3212 30.0791L34.9095 29.5016V29.5014C34.9779 29.4317 35.0722 29.3921 35.1707 29.3911C35.2695 29.3904 35.3643 29.4286 35.434 29.497C35.5037 29.5654 35.5426 29.6585 35.5418 29.7554C35.5408 29.8521 35.5005 29.9447 35.4295 30.0119L34.8413 30.5893H34.841C34.6975 30.7302 34.4647 30.7302 34.3212 30.5893ZM10.6154 16.241C10.7589 16.3819 10.7589 16.6105 10.6154 16.7515L10.3211 17.0403V17.0401C10.1768 17.1769 9.94752 17.1749 9.80568 17.0357C9.66384 16.8965 9.66163 16.6715 9.801 16.5298L10.0953 16.241C10.2388 16.1 10.4715 16.1 10.6154 16.241ZM12.1598 16.5298C12.2307 16.597 12.2711 16.6896 12.2719 16.7863C12.2729 16.8832 12.2339 16.9763 12.1643 17.0447C12.0946 17.1131 11.9998 17.1513 11.901 17.1503C11.8025 17.1496 11.7082 17.1099 11.6397 17.0401L11.3455 16.7512V16.7515C11.2019 16.6103 11.2022 16.3816 11.346 16.2407C11.4898 16.0998 11.7227 16.0998 11.8663 16.241L12.1598 16.5298ZM11.3403 15.5262C11.1968 15.3853 11.1968 15.1568 11.3403 15.0159L11.6346 14.7271C11.7789 14.5903 12.0081 14.5922 12.1502 14.7314C12.2921 14.8707 12.294 15.0959 12.1547 15.2376L11.8604 15.5264V15.5262C11.7168 15.6671 11.4841 15.6671 11.3403 15.5262ZM9.79609 15.2376H9.79584C9.72689 15.1699 9.68799 15.078 9.68799 14.9823C9.68799 14.8864 9.72665 14.7945 9.7956 14.7268C9.93916 14.5857 10.1721 14.5854 10.3159 14.7263L10.6102 15.0152C10.754 15.1561 10.754 15.3848 10.6104 15.5259C10.4669 15.6671 10.2339 15.6674 10.0901 15.5262L9.79609 15.2376ZM12.738 22.5715C13.745 21.3753 14.4295 20.3905 13.3999 19.5191H13.3997C13.2923 19.429 13.247 19.2869 13.283 19.1527C13.3187 19.0188 13.4295 18.9168 13.5681 18.8902C14.0513 18.8348 14.5393 18.9347 14.9597 19.1749C15.3798 19.4154 15.709 19.7831 15.8981 20.2231C16.0806 20.6697 16.0961 21.1653 15.9415 21.6221C15.84 22.0891 15.7886 22.3881 15.9937 22.6247C16.1429 22.8227 16.4029 22.907 16.6431 22.8355C16.8735 22.7719 17.0457 22.5831 17.0843 22.3511C17.0954 22.149 17.0644 21.9469 16.9932 21.757C16.8762 21.5027 16.8452 21.2182 16.9051 20.9455C16.9647 20.6726 17.1119 20.4258 17.3249 20.2409C17.4136 20.159 17.5382 20.1254 17.6571 20.1512C17.7763 20.1773 17.8743 20.2595 17.9191 20.371C18.1235 20.8798 18.4838 21.3136 18.9501 21.6126C19.2981 21.7678 19.5675 22.054 19.6975 22.4067C19.7942 22.6933 19.7679 23.0061 19.6238 23.273C19.5014 23.4796 19.4704 23.7264 19.5379 23.9561C19.5694 23.9957 19.6975 24.0138 19.9055 23.964C20.1754 23.876 20.3798 23.6578 20.4461 23.3863C20.4894 23.0924 20.452 22.7922 20.3377 22.5171C20.2234 22.242 20.0365 22.0018 19.7959 21.8212C19.4064 21.4744 19.1569 21.0016 19.0929 20.4891C19.0292 19.9767 19.1547 19.4587 19.4473 19.0297C19.547 18.8609 19.6137 18.6755 19.6445 18.4831C19.5763 18.2588 19.4714 18.0471 19.3343 17.8556C18.7836 17.1706 18.6039 16.2665 18.8516 15.4285C19.1533 14.7123 19.7531 14.1568 20.499 13.9031C20.6433 13.8484 20.8071 13.8881 20.9088 14.0024C21.0105 14.1167 21.0285 14.2814 20.9536 14.4143C20.9492 14.4215 20.5197 15.2083 20.975 15.6164C21.1193 15.7358 21.2954 15.8124 21.4825 15.8373C21.6699 15.8622 21.8603 15.8339 22.0319 15.7563C22.1898 15.6466 22.309 15.4909 22.3725 15.3113C22.436 15.132 22.4407 14.9374 22.3863 14.7551C22.3235 14.3621 22.2141 13.978 22.0605 13.6101C21.8108 13.0525 21.7005 12.4443 21.7384 11.8364C21.7337 11.4414 21.8504 11.0544 22.0735 10.7257C22.2966 10.3972 22.6155 10.1425 22.9886 9.9948C23.1186 9.95419 23.261 9.98755 23.3582 10.0816C23.4553 10.1756 23.4915 10.3148 23.4521 10.4429C23.3243 10.8846 23.3627 11.3566 23.5602 11.7729C23.7643 12.0779 24.0938 12.2807 24.4626 12.3278C24.9519 12.3578 25.4095 12.5758 25.7355 12.935C25.9342 13.3392 25.9633 13.8038 25.8165 14.2287C25.9051 14.284 26.0113 14.3058 26.1152 14.2901C26.2331 14.2872 26.3395 14.2197 26.391 14.1153C26.4452 13.8465 26.408 13.5676 26.2851 13.3213C26.1297 12.971 26.0817 12.584 26.1467 12.2074C26.2713 11.7168 26.5693 11.2858 26.9874 10.9906C27.4055 10.6955 27.917 10.5558 28.4304 10.5959C28.5816 10.6027 28.7134 10.6996 28.7624 10.8403C28.8111 10.9812 28.7668 11.1369 28.6511 11.2329C28.4881 11.3839 28.4238 11.6114 28.4841 11.8234C28.5253 11.9677 28.6166 12.0068 29.0269 12.0767C29.2507 12.1042 29.4691 12.1647 29.6747 12.2558C29.9621 12.3987 30.1795 12.6481 30.2793 12.9488C30.3827 13.2877 30.3391 13.6534 30.1586 13.9594C30.1148 14.0467 30.0367 14.1127 29.9426 14.1426C29.8483 14.1726 29.7459 14.1639 29.6582 14.1187C29.5706 14.0735 29.5051 13.9954 29.4767 13.9024C29.4484 13.8091 29.4597 13.7087 29.5078 13.6239C29.5942 13.4883 29.6205 13.3242 29.5814 13.169C29.5413 13.0522 29.4563 12.9556 29.3445 12.8997C29.2032 12.8431 29.0547 12.8054 28.9032 12.7878C28.6585 12.7878 28.4193 12.7143 28.2184 12.577C28.0175 12.4397 27.8643 12.2451 27.7794 12.0196C27.72 11.8197 27.7109 11.6087 27.753 11.4047C27.3073 11.5623 26.9734 11.9312 26.8661 12.3841C26.8439 12.6278 26.886 12.8726 26.9889 13.0952C27.1756 13.4958 27.2093 13.9487 27.0837 14.3718C26.9709 14.62 26.7683 14.8182 26.5149 14.9277C26.2615 15.0372 25.9756 15.0503 25.7128 14.9644C25.2955 14.8832 25.0231 14.4866 25.1031 14.0764C25.1915 13.8356 25.1992 13.5733 25.1253 13.3277C25.0371 13.1941 24.684 13.1068 24.3201 13.0324H24.3198C23.7466 12.9463 23.2398 12.6193 22.932 12.1365C22.7667 11.8532 22.6712 11.5356 22.6532 11.2096C22.5461 11.4184 22.4853 11.6473 22.4747 11.8811C22.4427 12.3868 22.5375 12.8924 22.7512 13.3539C22.9256 13.7711 23.0489 14.2074 23.1189 14.6534C23.2033 14.9826 23.1775 15.3299 23.045 15.6439C22.9125 15.9577 22.6805 16.2211 22.3833 16.3952C22.0775 16.5419 21.7342 16.5965 21.3966 16.5526C21.0593 16.5088 20.7423 16.3681 20.486 16.1484C20.1595 15.8545 19.9943 15.4259 20.041 14.9932C19.8209 15.1736 19.6522 15.4068 19.552 15.6705C19.3863 16.3053 19.5429 16.9796 19.9726 17.481C20.1688 17.7532 20.3077 18.0609 20.3816 18.3865C20.3875 18.7198 20.2974 19.0483 20.1211 19.3335C19.8216 19.9586 19.5387 20.5493 20.3196 21.3038H20.3198C20.6633 21.5668 20.9246 21.9194 21.0736 22.3211C21.2225 22.7231 21.2536 23.1579 21.1625 23.5764C21.026 24.0997 20.6163 24.5123 20.0866 24.6592C19.8941 24.7337 19.6828 24.7482 19.4816 24.7006C19.2804 24.6532 19.0989 24.5459 18.962 24.3936C18.7032 23.9375 18.7089 23.3811 18.9768 22.9303C19.0292 22.8365 19.0386 22.7255 19.0026 22.6247C18.9352 22.4577 18.8029 22.3241 18.6347 22.253C18.2346 22.0458 17.8948 21.742 17.647 21.37C17.6611 21.4234 17.6778 21.4819 17.697 21.5469C17.798 21.8302 17.8366 22.1309 17.811 22.4299C17.7611 22.7717 17.5774 23.0807 17.2988 23.2914C17.0203 23.5022 16.6689 23.5979 16.3198 23.5585C15.9703 23.5189 15.6505 23.347 15.4281 23.0797C15.0902 22.6064 15.0114 22.0002 15.2178 21.459C15.3266 21.1617 15.3335 20.8378 15.2377 20.5364C15.0799 20.2016 14.8189 19.9239 14.4918 19.7423C15.0383 20.9589 13.9447 22.2598 13.3034 23.0212C13.1177 23.2262 12.9491 23.4456 12.7996 23.6774C12.4083 24.3825 12.2768 25.1985 12.4275 25.9878C12.5782 26.777 13.002 27.491 13.627 28.009C13.7846 28.1349 13.8082 28.3624 13.6799 28.5171C13.5516 28.6718 13.3197 28.6952 13.1621 28.5693C12.4145 27.9406 11.9064 27.081 11.722 26.1318C11.5375 25.1826 11.6875 24.2 12.1472 23.3453C12.3174 23.0695 12.5139 22.8104 12.7341 22.5713L12.738 22.5715ZM14.4243 12.6089C14.6243 13.7641 15.0126 13.9698 15.4628 14.1069C15.5519 14.1206 15.6339 14.162 15.6972 14.2251C16.0237 14.6568 16.5335 14.918 17.0806 14.934C17.1695 14.9355 17.2582 14.9263 17.3449 14.9074C17.482 14.8716 17.5862 14.7617 17.6123 14.6246C17.6384 14.4878 17.5817 14.3481 17.4667 14.2664C17.1683 14.0969 16.9592 13.8088 16.8935 13.4767C16.8277 13.1443 16.9117 12.8003 17.1242 12.5338C18.0575 11.162 17.6699 10.5166 16.627 9.81057C16.4278 9.65539 16.282 9.44389 16.2092 9.20483C16.1365 8.96577 16.14 8.71052 16.2195 8.47366C16.2648 8.33782 16.2244 8.18843 16.1161 8.09272C16.0077 7.997 15.8523 7.97307 15.7194 8.03181C15.2224 8.2566 14.827 8.65301 14.6088 9.14564C14.5169 9.46349 14.5302 9.80187 14.6472 10.1115C14.675 10.2205 14.7208 10.388 14.7297 10.4796L14.7295 10.4799C14.5921 10.4117 14.4662 10.323 14.3566 10.2169C14.2759 10.1408 14.1648 10.1035 14.0535 10.1159C13.9422 10.1292 13.8432 10.1913 13.7844 10.2848C13.5782 10.5261 13.4839 10.8405 13.5236 11.1528C13.5635 11.4651 13.7339 11.7469 13.9939 11.9309C14.2101 12.1023 14.3606 12.3408 14.4207 12.6072L14.4243 12.6089ZM14.8274 11.2273L14.8272 11.2271C15.003 11.2227 15.169 11.1463 15.2847 11.0163C15.4938 10.6929 15.5228 10.288 15.3621 9.93921C15.303 9.77459 15.2781 9.60008 15.2884 9.4258C15.3286 9.3308 15.3808 9.24113 15.4436 9.1587C15.5004 9.66437 15.7792 10.1205 16.2069 10.4077C16.9917 10.939 17.1879 11.1369 16.5093 12.136C16.1894 12.5856 16.0712 13.1442 16.182 13.6815C16.039 13.5539 15.8659 13.4633 15.6782 13.4173C15.4576 13.3509 15.2869 13.2982 15.1458 12.4875L15.1456 12.4877C15.0614 12.0744 14.839 11.7007 14.5139 11.4256C14.3484 11.2625 14.2566 11.1716 14.2522 11.0524C14.4206 11.1641 14.6188 11.2245 14.822 11.2257L14.8274 11.2273Z" fill="#CF6246"/>
<circle cx="21" cy="21" r="20.5" stroke="#CF6246"/>
</svg>
