<svg width="42" height="42" viewBox="0 0 42 42" fill="none" xmlns="http://www.w3.org/2000/svg">
<path d="M15.0124 20.3946V28.5284C15.0116 28.8199 14.8927 29.0992 14.6821 29.3047C14.4718 29.51 14.1866 29.6251 13.8896 29.6244H11.6505C11.3536 29.6251 11.0684 29.51 10.8578 29.3047C10.6475 29.0992 10.5285 28.8199 10.5278 28.5284V20.3946C10.5319 20.105 10.652 19.8285 10.8621 19.6251C11.0722 19.4219 11.3555 19.3078 11.6506 19.3078H13.8896C14.1849 19.3071 14.4687 19.4208 14.679 19.6244C14.8891 19.8278 15.009 20.1047 15.0124 20.3946Z" fill="#31BC80"/>
<path d="M34.1735 30.1817C34.1728 30.7363 33.9489 31.268 33.5504 31.6612C33.152 32.0546 32.6117 32.2775 32.0467 32.2815H23.1809C22.5977 32.2777 22.0407 32.0426 21.637 31.6294L18.2659 28.3326H15.6371V20.5632H21.837C22.4699 20.5636 23.0693 20.8422 23.4711 21.3223L27.3849 25.1519C27.6905 25.4504 27.8965 25.8331 27.9757 26.249C28.0547 26.665 28.0033 27.0948 27.8276 27.4815C27.1509 28.0081 25.3701 28.2315 24.8119 27.6835L20.7765 23.7315C20.6528 23.6275 20.4686 23.6345 20.3532 23.7475C20.2381 23.8605 20.231 24.0416 20.337 24.163L24.3692 28.1182C24.769 28.5095 25.3108 28.7299 25.8755 28.7303C26.6149 28.6465 27.3326 28.4306 27.993 28.0936H32.0473C32.6122 28.0945 33.1537 28.3148 33.5536 28.7066C33.9532 29.0986 34.1786 29.6299 34.1803 30.1845L34.1735 30.1817Z" fill="#31BC80"/>
<path d="M40.3657 15.2823C39.5332 16.092 38.8309 17.021 38.2824 18.0375C37.4093 19.4887 36.5828 20.8569 34.7179 20.9731C34.5368 20.9938 34.3545 21.0041 34.1721 21.0036C33.1465 21.0551 32.1537 20.6421 31.4778 19.8835C31.4397 19.8384 31.4043 19.7914 31.3717 19.7425C33.6141 18.212 36.6734 17.0639 36.7139 17.0486C36.8732 16.9887 36.9539 16.814 36.8948 16.6568C36.8661 16.5803 36.8074 16.5182 36.7318 16.4844C36.6562 16.4506 36.5701 16.4475 36.4923 16.4762C34.589 17.1968 32.768 18.1122 31.0597 19.2067C30.729 18.3811 30.7122 17.466 31.013 16.6294C31.1939 16.0424 31.5146 15.5061 31.9486 15.065C33.5329 13.519 36.3147 13.421 40.2442 14.7589C40.3483 14.7949 40.4255 14.882 40.4468 14.9884C40.4748 15.0937 40.444 15.2055 40.3657 15.2823L40.3657 15.2823Z" fill="#31BC80"/>
<path d="M20.5082 12.726C20.4574 12.8873 20.5496 13.0586 20.714 13.1086C23.1176 13.9103 25.3954 15.0375 27.4811 16.4576C27.3545 16.7491 27.1875 17.022 26.9853 17.2688C26.2617 18.1412 25.1141 18.6065 23.7513 18.6065C23.5293 18.606 23.3074 18.5938 23.087 18.5696C20.8696 18.432 19.8842 16.7758 18.8177 15.0219C18.1223 13.871 17.4049 12.6802 16.2697 11.6546C16.1881 11.582 16.1513 11.4728 16.173 11.3667C16.1955 11.2617 16.2723 11.1757 16.3757 11.1402C21.1316 9.51177 24.4997 9.62807 26.4085 11.4862C26.9352 12.0145 27.3255 12.659 27.5468 13.3658C27.8191 14.1662 27.8656 15.0241 27.6808 15.8483C25.5918 14.4357 23.3119 13.3165 20.9075 12.5239C20.8274 12.4972 20.7396 12.5035 20.6642 12.5416C20.5888 12.5798 20.5326 12.6463 20.5084 12.7259L20.5082 12.726Z" fill="#31BC80"/>
<path d="M29.3705 28.6173C29.1982 28.6173 29.0585 28.4802 29.0585 28.3113V11.043C29.0585 10.8739 29.1982 10.737 29.3705 10.737C29.5426 10.737 29.6823 10.8739 29.6823 11.043V28.3113C29.6823 28.3923 29.6495 28.4703 29.5909 28.5276C29.5325 28.5852 29.4531 28.6173 29.3705 28.6173Z" fill="#31BC80"/>
<path d="M29.5983 17.7769C29.5394 17.8392 29.4571 17.8747 29.3707 17.8749C29.2922 17.8754 29.2166 17.8469 29.1585 17.7953C28.6301 17.3196 28.0719 16.8769 27.4871 16.4698C27.573 16.272 27.6407 16.0672 27.6897 15.8574C28.3523 16.3098 28.9838 16.8047 29.5797 17.3391C29.6421 17.3943 29.6795 17.4718 29.683 17.5543C29.6864 17.6367 29.656 17.7168 29.5983 17.7769Z" fill="#31BC80"/>
<path d="M31.3723 19.7398C30.7147 20.1642 30.1234 20.6798 29.6164 21.2703C29.5096 21.4039 29.3127 21.4272 29.1768 21.3224C29.0406 21.2176 29.0169 21.0243 29.1237 20.8907C29.6817 20.2375 30.334 19.6684 31.0602 19.2009C31.143 19.3916 31.2476 19.5723 31.3723 19.7398Z" fill="#31BC80"/>
<circle cx="21" cy="21" r="20.5" stroke="#31BC80"/>
<path d="M8 6L31.5 38.5" stroke="#FF0000" stroke-width="2"/>
</svg>
